<svg width="16" height="16" viewBox="0 0 16 16" fill="none" xmlns="http://www.w3.org/2000/svg">
<path d="M8 15.5007C12.1421 15.5007 15.5 12.1429 15.5 8.00073C15.5 3.8586 12.1421 0.500732 8 0.500732C3.85786 0.500732 0.5 3.8586 0.5 8.00073C0.5 12.1429 3.85786 15.5007 8 15.5007Z" fill="#1977F3"/>
<path d="M10.9196 10.1695L11.2518 8.00102H9.17196V6.59404C9.17196 6.0013 9.46201 5.42227 10.3944 5.42227H11.3404V3.57654C11.3404 3.57654 10.4819 3.42993 9.66134 3.42993C7.94851 3.42993 6.82841 4.46776 6.82841 6.3483V8.00102H4.92361V10.1695H6.82841V15.4103C7.21021 15.4704 7.60151 15.501 8.00019 15.501C8.39886 15.501 8.79016 15.4694 9.17196 15.4103V10.1695H10.9196Z" fill="white"/>
</svg>
