<svg width="30" height="30" viewBox="0 0 30 30" fill="none" xmlns="http://www.w3.org/2000/svg">
<path fill-rule="evenodd" clip-rule="evenodd" d="M0 15C0 6.71625 6.71625 0 15 0C23.2837 0 30 6.71625 30 15C30 23.2837 23.2837 30 15 30C6.71625 30 0 23.2837 0 15ZM9 9.58272C9 10.4576 9.70429 11.1654 10.5714 11.1654C11.4386 11.1654 12.1429 10.4576 12.1429 9.58272C12.1429 8.7093 11.44 8 10.5714 8C9.70286 8 9 8.7093 9 9.58272ZM12 21V12.437H9.14286V21H12ZM22 21H19.1457V16.9169C19.1457 14.2324 16.2857 14.4593 16.2857 16.9169V21H13.4286V12.437H16.2857V13.9969C17.5314 11.6906 22 11.5194 22 16.2062V21Z" fill="#2867B2"/>
</svg>
