<svg width="32" height="32" viewBox="0 0 32 32" fill="none" xmlns="http://www.w3.org/2000/svg">
<path fill-rule="evenodd" clip-rule="evenodd" d="M31.0045 16.0022C31.0045 24.2878 24.2878 31.0045 16.0022 31.0045C7.71673 31.0045 1 24.2878 1 16.0022C1 7.71673 7.71673 1 16.0022 1C24.2878 1 31.0045 7.71673 31.0045 16.0022Z" fill="#1DA1F2"/>
<path fill-rule="evenodd" clip-rule="evenodd" d="M12.5438 23.3261C19.196 23.3261 22.8337 17.815 22.8337 13.0361C22.8337 12.8795 22.8306 12.7236 22.8235 12.5686C23.5296 12.0581 24.1434 11.4212 24.6276 10.696C23.9796 10.9838 23.2822 11.1779 22.5507 11.2653C23.2974 10.8177 23.8706 10.1092 24.141 9.26479C23.4421 9.679 22.6684 9.9804 21.8446 10.1426C21.1846 9.43964 20.2448 9 19.2047 9C17.2073 9 15.5876 10.6196 15.5876 12.6163C15.5876 12.9001 15.6194 13.1761 15.6814 13.4409C12.6757 13.2898 10.0104 11.8506 8.22688 9.66235C7.91604 10.1967 7.73706 10.8177 7.73706 11.48C7.73706 12.7348 8.37563 13.8424 9.3465 14.4905C8.75331 14.4722 8.1959 14.3091 7.70848 14.0381C7.70766 14.0531 7.70766 14.0683 7.70766 14.0841C7.70766 15.8359 8.95449 17.2981 10.6092 17.6297C10.3054 17.7124 9.98575 17.757 9.65577 17.757C9.42279 17.757 9.19618 17.7339 8.97595 17.6917C9.43637 19.1286 10.7714 20.1742 12.3545 20.2036C11.1165 21.1737 9.55721 21.7518 7.8627 21.7518C7.57091 21.7518 7.28309 21.735 7 21.7017C8.60066 22.7274 10.5011 23.3261 12.5438 23.3261Z" fill="#FFFFFE"/>
</svg>
