<svg xmlns="http://www.w3.org/2000/svg" xmlns:xlink="http://www.w3.org/1999/xlink" width="200" zoomAndPan="magnify" viewBox="0 0 150 149.999998" height="200" preserveAspectRatio="xMidYMid meet" version="1.0"><path fill="#ffde59" d="M 130.46875 130.46875 L 19.625 130.46875 L 19.625 19.625 L 130.46875 19.625 Z M 17.089844 5.160156 C 12.257812 5.160156 5.617188 0.785156 0.789062 0.785156 C 0.789062 5.617188 5.160156 12.257812 5.160156 17.089844 C 5.160156 21.917969 0.0351562 26.746094 0.0351562 31.578125 C 0.0351562 36.40625 5.160156 41.238281 5.160156 46.066406 C 5.160156 50.898438 0.0351562 55.726562 0.0351562 60.558594 C 0.0351562 65.386719 5.160156 70.21875 5.160156 75.046875 C 5.160156 79.878906 0.0351562 84.707031 0.0351562 89.539062 C 0.0351562 94.367188 5.160156 99.199219 5.160156 104.027344 C 5.160156 108.859375 0.0351562 113.6875 0.0351562 118.519531 C 0.0351562 123.347656 5.160156 128.175781 5.160156 133.007812 C 5.160156 137.835938 0.789062 144.480469 0.789062 149.308594 C 5.617188 149.308594 12.257812 144.9375 17.089844 144.9375 C 21.917969 144.9375 26.75 150.058594 31.578125 150.058594 C 36.410156 150.058594 41.238281 144.9375 46.066406 144.9375 C 50.898438 144.9375 55.726562 150.058594 60.558594 150.058594 C 65.386719 150.058594 70.21875 144.9375 75.046875 144.9375 C 79.878906 144.9375 84.707031 150.058594 89.539062 150.058594 C 94.367188 150.058594 99.199219 144.9375 104.027344 144.9375 C 108.859375 144.9375 113.6875 150.058594 118.519531 150.058594 C 123.347656 150.058594 128.179688 144.9375 133.007812 144.9375 C 137.839844 144.9375 144.480469 149.308594 149.308594 149.308594 C 149.308594 144.480469 144.9375 137.835938 144.9375 133.007812 C 144.9375 128.175781 150.058594 123.347656 150.058594 118.519531 C 150.058594 113.6875 144.9375 108.859375 144.9375 104.027344 C 144.9375 99.199219 150.058594 94.367188 150.058594 89.539062 C 150.058594 84.707031 144.9375 79.878906 144.9375 75.046875 C 144.9375 70.21875 150.058594 65.386719 150.058594 60.558594 C 150.058594 55.726562 144.9375 50.898438 144.9375 46.066406 C 144.9375 41.238281 150.058594 36.40625 150.058594 31.578125 C 150.058594 26.746094 144.9375 21.917969 144.9375 17.089844 C 144.9375 12.257812 149.308594 5.617188 149.308594 0.785156 C 144.480469 0.785156 137.839844 5.160156 133.007812 5.160156 C 128.179688 5.160156 123.347656 0.0351562 118.519531 0.0351562 C 113.6875 0.0351562 108.859375 5.160156 104.027344 5.160156 C 99.199219 5.160156 94.367188 0.0351562 89.539062 0.0351562 C 84.707031 0.0351562 79.878906 5.160156 75.046875 5.160156 C 70.21875 5.160156 65.386719 0.0351562 60.558594 0.0351562 C 55.726562 0.0351562 50.898438 5.160156 46.066406 5.160156 C 41.238281 5.160156 36.410156 0.0351562 31.578125 0.0351562 C 26.75 0.0351562 21.917969 5.160156 17.089844 5.160156 Z M 17.089844 5.160156 " fill-opacity="1" fill-rule="evenodd"/><path fill="#ffde59" d="M 77.085938 97.238281 L 48.546875 66.851562 L 22.304688 103.945312 L 22.304688 127.789062 L 127.789062 127.789062 L 127.789062 82.824219 L 98.992188 50.53125 L 68.804688 84.519531 L 79.03125 95.40625 C 79.539062 95.945312 79.511719 96.789062 78.972656 97.296875 C 78.4375 97.800781 77.589844 97.773438 77.085938 97.238281 Z M 77.085938 97.238281 " fill-opacity="1" fill-rule="evenodd"/><path fill="#ffde59" d="M 73.4375 49.675781 C 73.4375 50.285156 73.375 50.894531 73.257812 51.496094 C 73.136719 52.097656 72.960938 52.679688 72.726562 53.246094 C 72.492188 53.8125 72.203125 54.351562 71.863281 54.859375 C 71.523438 55.367188 71.136719 55.839844 70.703125 56.273438 C 70.269531 56.707031 69.796875 57.09375 69.289062 57.433594 C 68.777344 57.773438 68.242188 58.0625 67.675781 58.296875 C 67.109375 58.53125 66.523438 58.707031 65.921875 58.828125 C 65.324219 58.949219 64.714844 59.007812 64.101562 59.007812 C 63.488281 59.007812 62.882812 58.949219 62.28125 58.828125 C 61.679688 58.707031 61.097656 58.53125 60.53125 58.296875 C 59.964844 58.0625 59.425781 57.773438 58.917969 57.433594 C 58.40625 57.09375 57.9375 56.707031 57.503906 56.273438 C 57.070312 55.839844 56.683594 55.367188 56.34375 54.859375 C 56 54.351562 55.714844 53.8125 55.480469 53.246094 C 55.246094 52.679688 55.066406 52.097656 54.949219 51.496094 C 54.828125 50.894531 54.769531 50.285156 54.769531 49.675781 C 54.769531 49.0625 54.828125 48.453125 54.949219 47.851562 C 55.066406 47.253906 55.246094 46.667969 55.480469 46.101562 C 55.714844 45.535156 56 45 56.34375 44.488281 C 56.683594 43.980469 57.070312 43.507812 57.503906 43.074219 C 57.9375 42.640625 58.40625 42.253906 58.917969 41.914062 C 59.425781 41.574219 59.964844 41.285156 60.53125 41.050781 C 61.097656 40.816406 61.679688 40.640625 62.28125 40.519531 C 62.882812 40.402344 63.488281 40.339844 64.101562 40.339844 C 64.714844 40.339844 65.324219 40.402344 65.921875 40.519531 C 66.523438 40.640625 67.109375 40.816406 67.675781 41.050781 C 68.242188 41.285156 68.777344 41.574219 69.289062 41.914062 C 69.796875 42.253906 70.269531 42.640625 70.703125 43.074219 C 71.136719 43.507812 71.523438 43.980469 71.863281 44.488281 C 72.203125 45 72.492188 45.535156 72.726562 46.101562 C 72.960938 46.667969 73.136719 47.253906 73.257812 47.851562 C 73.375 48.453125 73.4375 49.0625 73.4375 49.675781 Z M 73.4375 49.675781 " fill-opacity="1" fill-rule="nonzero"/></svg>