<svg xmlns="http://www.w3.org/2000/svg" xmlns:xlink="http://www.w3.org/1999/xlink" width="200" zoomAndPan="magnify" viewBox="0 0 150 149.999998" height="200" preserveAspectRatio="xMidYMid meet" version="1.0"><defs><clipPath id="a43149d772"><path d="M 0 16.648438 L 149 16.648438 L 149 132.898438 L 0 132.898438 Z M 0 16.648438 " clip-rule="nonzero"/></clipPath></defs><g clip-path="url(#a43149d772)"><path fill="#8c52ff" d="M 138.304688 51.769531 C 137.695312 47.246094 137.613281 39.441406 141.820312 36.828125 C 141.890625 36.78125 141.949219 36.710938 142.019531 36.652344 C 145.453125 35.550781 147.832031 34.003906 145.96875 31.929688 L 95.25 16.648438 L 13.136719 28.0625 C 13.136719 28.0625 3.738281 29.410156 4.570312 44.023438 C 5.027344 51.96875 7.523438 55.871094 9.703125 57.792969 L 2.964844 59.832031 C 1.101562 61.90625 3.480469 63.441406 6.914062 64.542969 C 6.984375 64.601562 7.03125 64.671875 7.113281 64.71875 C 11.308594 67.34375 11.226562 75.136719 10.628906 79.671875 C -4.464844 83.949219 0.949219 85.355469 0.949219 85.355469 L 4.265625 86.152344 C 1.933594 88.261719 -0.386719 92.246094 0.0585938 99.816406 C 0.890625 114.429688 8.613281 115.4375 8.613281 115.4375 L 62.355469 132.898438 L 143.460938 113.257812 C 143.460938 113.257812 148.875 111.851562 133.78125 107.5625 C 133.171875 103.050781 133.089844 95.246094 137.296875 92.621094 C 137.378906 92.574219 137.425781 92.503906 137.496094 92.445312 C 140.929688 91.34375 143.308594 89.808594 141.445312 87.734375 L 137.917969 86.667969 C 140.273438 85.25 143.800781 81.546875 144.351562 71.914062 C 144.738281 65.304688 143.003906 61.425781 141.011719 59.140625 L 147.972656 57.453125 C 147.972656 57.453125 153.398438 56.058594 138.304688 51.769531 Z M 70.464844 51.582031 L 84.09375 48.78125 L 130.195312 39.300781 L 137.0625 37.894531 C 134.859375 41.914062 134.953125 47.410156 135.316406 50.9375 C 135.398438 51.734375 135.492188 52.460938 135.574219 53.023438 L 128.0625 54.886719 L 69.890625 69.359375 Z M 11.871094 65.796875 L 18.738281 67.203125 L 63 76.308594 L 66.867188 77.105469 L 78.46875 79.484375 L 79.03125 97.261719 L 19.242188 82.390625 L 13.347656 80.925781 C 13.441406 80.363281 13.523438 79.636719 13.617188 78.839844 C 13.96875 75.3125 14.0625 69.816406 11.871094 65.796875 Z M 9.199219 43.320312 C 9.117188 39.429688 9.808594 36.617188 11.214844 35.1875 C 12.105469 34.273438 13.160156 34.085938 13.875 34.085938 C 14.261719 34.085938 14.53125 34.144531 14.554688 34.144531 L 49.933594 45.675781 L 67.582031 51.429688 L 67.007812 69.335938 L 17.484375 55.449219 L 14.871094 54.722656 C 14.777344 54.699219 14.636719 54.675781 14.542969 54.675781 C 14.332031 54.652344 9.445312 54.207031 9.199219 43.320312 Z M 62.484375 125.140625 L 10.347656 110.527344 C 10.253906 110.492188 10.125 110.480469 10.019531 110.46875 C 9.808594 110.457031 4.910156 110.011719 4.675781 99.125 C 4.59375 95.234375 5.285156 92.421875 6.691406 90.992188 C 7.582031 90.078125 8.625 89.890625 9.351562 89.890625 C 9.726562 89.890625 10.007812 89.949219 10.019531 89.949219 C 10.019531 89.949219 10.03125 89.949219 10.019531 89.949219 L 63.058594 107.234375 Z M 130.792969 106.742188 C 130.875 107.539062 130.96875 108.265625 131.050781 108.828125 L 65.367188 125.164062 L 65.929688 107.386719 L 79.980469 104.492188 L 82.054688 104.996094 L 89.824219 102.476562 L 125.660156 95.105469 L 132.527344 93.699219 C 130.335938 97.707031 130.429688 103.203125 130.792969 106.742188 Z M 134.414062 82.566406 C 134.296875 82.578125 134.167969 82.589844 134.0625 82.625 L 129.105469 84.019531 L 81.925781 97.238281 L 81.351562 79.332031 L 96.832031 74.28125 L 134.308594 62.058594 C 134.308594 62.058594 136.277344 61.625 137.71875 63.089844 C 139.113281 64.519531 139.816406 67.332031 139.734375 71.222656 C 139.488281 82.109375 134.589844 82.554688 134.414062 82.566406 Z M 134.414062 82.566406 " fill-opacity="1" fill-rule="nonzero"/></g></svg>