<svg xmlns="http://www.w3.org/2000/svg" xmlns:xlink="http://www.w3.org/1999/xlink" width="200" zoomAndPan="magnify" viewBox="0 0 150 149.999998" height="200" preserveAspectRatio="xMidYMid meet" version="1.0"><defs><clipPath id="9bdb4f2da6"><path d="M 3.417969 2.90625 L 150 2.90625 L 150 146.90625 L 3.417969 146.90625 Z M 3.417969 2.90625 " clip-rule="nonzero"/></clipPath></defs><g clip-path="url(#9bdb4f2da6)"><path fill="#ff66c4" d="M 108.773438 56.417969 L 118.300781 39.929688 C 122.761719 32.214844 132.636719 29.574219 140.363281 34.027344 C 148.085938 38.480469 150.734375 48.34375 146.273438 56.058594 L 145.40625 57.554688 L 146.40625 58.132812 C 150.925781 60.738281 153.179688 66 150.457031 70.710938 L 142.035156 85.273438 C 139.3125 89.984375 133.625 90.667969 129.105469 88.0625 C 128.765625 87.863281 128.445312 87.648438 128.148438 87.410156 L 116.773438 107.085938 L 108.773438 111.335938 L 108.773438 143.601562 C 108.773438 145.402344 107.3125 146.859375 105.511719 146.859375 L 6.992188 146.859375 C 5.191406 146.859375 3.730469 145.402344 3.730469 143.601562 L 3.730469 28.921875 C 3.730469 28.8125 3.734375 28.707031 3.746094 28.597656 C 3.753906 28.519531 3.769531 28.441406 3.78125 28.363281 C 3.785156 28.335938 3.789062 28.308594 3.792969 28.28125 C 3.8125 28.1875 3.835938 28.097656 3.863281 28.007812 C 3.867188 27.996094 3.867188 27.984375 3.871094 27.972656 C 3.898438 27.882812 3.933594 27.792969 3.96875 27.703125 C 3.972656 27.695312 3.976562 27.683594 3.980469 27.675781 C 4.015625 27.589844 4.054688 27.511719 4.09375 27.429688 C 4.101562 27.417969 4.109375 27.398438 4.117188 27.386719 C 4.15625 27.3125 4.199219 27.246094 4.242188 27.179688 C 4.253906 27.15625 4.265625 27.132812 4.28125 27.109375 C 4.324219 27.050781 4.367188 26.992188 4.410156 26.933594 C 4.433594 26.90625 4.453125 26.878906 4.472656 26.855469 C 4.523438 26.792969 4.574219 26.738281 4.628906 26.683594 C 4.648438 26.660156 4.664062 26.640625 4.6875 26.617188 L 27.519531 3.8125 C 27.542969 3.792969 27.5625 3.773438 27.585938 3.753906 C 27.640625 3.703125 27.695312 3.648438 27.757812 3.601562 C 27.78125 3.578125 27.8125 3.5625 27.835938 3.539062 C 27.894531 3.496094 27.953125 3.449219 28.011719 3.410156 C 28.035156 3.394531 28.058594 3.382812 28.082031 3.367188 C 28.148438 3.324219 28.214844 3.28125 28.289062 3.246094 C 28.304688 3.238281 28.320312 3.230469 28.332031 3.222656 C 28.414062 3.183594 28.492188 3.140625 28.578125 3.109375 C 28.585938 3.105469 28.597656 3.101562 28.605469 3.097656 C 28.695312 3.0625 28.785156 3.027344 28.875 3 C 28.886719 2.996094 28.898438 2.996094 28.910156 2.992188 C 29 2.964844 29.09375 2.941406 29.183594 2.921875 C 29.210938 2.917969 29.242188 2.914062 29.269531 2.910156 C 29.34375 2.898438 29.421875 2.882812 29.5 2.875 C 29.609375 2.867188 29.71875 2.859375 29.828125 2.859375 L 105.511719 2.859375 C 107.3125 2.859375 108.773438 4.320312 108.773438 6.117188 Z M 87.566406 115.730469 C 87.433594 115.703125 87.296875 115.691406 87.160156 115.703125 C 86.113281 115.773438 84.917969 116.167969 83.496094 116.84375 C 82.898438 117.128906 82.273438 117.453125 81.550781 117.855469 C 81.117188 118.097656 79.679688 118.917969 79.757812 118.875 C 79.121094 119.234375 78.695312 119.460938 78.351562 119.621094 C 76.683594 120.394531 75.839844 120.730469 75.152344 120.832031 C 75.25 120.507812 75.332031 120.320312 75.921875 118.988281 C 76 118.816406 76.0625 118.671875 76.125 118.53125 C 76.558594 117.519531 76.804688 116.808594 76.882812 116.1875 C 76.882812 116.195312 77.03125 115.5625 77.097656 115.222656 C 77.214844 114.628906 77.292969 114.066406 77.324219 113.53125 C 77.433594 111.445312 76.71875 110.035156 74.832031 110.144531 C 73.511719 110.226562 69.5625 113.539062 64.023438 118.902344 L 64.230469 118.273438 C 66.105469 113.464844 60.855469 108.953125 56.347656 111.90625 L 53.453125 113.902344 C 52.75 114.359375 52.542969 115.328125 52.988281 116.0625 L 53.894531 117.523438 C 54.347656 118.269531 55.328125 118.492188 56.0625 118.007812 L 59.117188 115.902344 C 59.464844 115.675781 59.921875 116.070312 59.75 116.507812 L 55.644531 127.601562 C 55.0625 129.09375 56.054688 130.9375 57.878906 130.9375 C 58.519531 130.9375 59.136719 130.679688 59.585938 130.210938 C 62.898438 126.804688 68.089844 121.683594 71.257812 118.761719 C 71.230469 118.835938 71.199219 118.910156 71.167969 118.988281 C 71.054688 119.277344 70.964844 119.519531 70.878906 119.75 C 70.078125 121.9375 69.890625 123.257812 70.683594 124.152344 C 71.628906 125.222656 72.984375 125.757812 74.660156 125.757812 C 75.828125 125.757812 76.964844 125.492188 78.304688 124.964844 C 78.867188 124.742188 79.304688 124.546875 80.324219 124.074219 C 80.6875 123.910156 81.109375 123.675781 81.699219 123.332031 C 81.957031 123.179688 83.03125 122.535156 83.296875 122.382812 C 83.671875 122.160156 84 121.972656 84.308594 121.800781 C 85.648438 121.0625 86.652344 120.652344 87.34375 120.59375 C 88.164062 120.523438 88.800781 119.855469 88.800781 119.023438 L 88.800781 118.140625 C 88.230469 117.417969 87.8125 116.597656 87.566406 115.730469 Z M 26.566406 13.984375 L 14.867188 25.664062 L 26.566406 25.664062 Z M 83.613281 73.476562 C 85.671875 73.476562 87.144531 71.863281 87.144531 69.804688 C 87.144531 67.746094 85.671875 66.277344 83.613281 66.277344 L 25.9375 66.277344 C 23.878906 66.277344 22.257812 67.746094 22.257812 69.804688 C 22.257812 71.863281 23.878906 73.476562 25.9375 73.476562 Z M 83.613281 56.199219 C 85.671875 56.199219 87.144531 54.582031 87.144531 52.523438 C 87.144531 50.46875 85.671875 48.996094 83.613281 48.996094 L 25.9375 48.996094 C 23.878906 48.996094 22.257812 50.46875 22.257812 52.523438 C 22.257812 54.582031 23.878906 56.199219 25.9375 56.199219 Z M 83.613281 90.671875 C 85.671875 90.671875 87.144531 89.199219 87.144531 87.144531 C 87.144531 85.085938 85.671875 83.46875 83.613281 83.46875 L 25.9375 83.46875 C 23.878906 83.46875 22.257812 85.085938 22.257812 87.144531 C 22.257812 89.199219 23.878906 90.671875 25.9375 90.671875 Z M 136.222656 64.230469 L 140.71875 66.820312 L 133.765625 78.84375 C 132.492188 78.417969 131.054688 78.929688 130.355469 80.136719 C 129.558594 81.511719 130.03125 83.273438 131.410156 84.070312 C 133.714844 85.398438 136.664062 85.347656 138.039062 82.972656 L 146.460938 68.40625 C 147.835938 66.027344 146.402344 63.449219 144.101562 62.121094 L 139.105469 59.242188 L 142.277344 53.753906 C 145.464844 48.246094 143.574219 41.199219 138.054688 38.019531 C 132.539062 34.835938 125.484375 36.722656 122.296875 42.234375 L 93.460938 92.117188 L 94.070312 109.496094 L 92.222656 112.6875 C 91.585938 113.789062 91.964844 115.199219 93.070312 115.835938 C 94.171875 116.472656 95.582031 116.09375 96.21875 114.992188 L 98.066406 111.800781 L 113.441406 103.636719 Z M 136.222656 64.230469 " fill-opacity="1" fill-rule="nonzero"/></g></svg>