<svg xmlns="http://www.w3.org/2000/svg" xmlns:xlink="http://www.w3.org/1999/xlink" width="200" zoomAndPan="magnify" viewBox="0 0 150 149.999998" height="200" preserveAspectRatio="xMidYMid meet" version="1.0"><defs><clipPath id="f281de6664"><path d="M 57 45 L 137.15625 45 L 137.15625 150 L 57 150 Z M 57 45 " clip-rule="nonzero"/></clipPath><clipPath id="d4aec05a75"><path d="M 12.65625 0 L 76 0 L 76 88 L 12.65625 88 Z M 12.65625 0 " clip-rule="nonzero"/></clipPath></defs><g clip-path="url(#f281de6664)"><path fill="#7ed957" d="M 132.175781 51.359375 L 132.175781 60.953125 L 87.355469 78.90625 L 87.355469 69.316406 Z M 122.214844 129.972656 C 116.722656 129.972656 112.257812 125.496094 112.257812 119.996094 C 112.257812 114.496094 116.722656 110.023438 122.214844 110.023438 C 127.707031 110.023438 132.175781 114.496094 132.175781 119.996094 C 132.175781 125.496094 127.707031 129.972656 122.214844 129.972656 Z M 72.417969 144.933594 C 66.925781 144.933594 62.457031 140.460938 62.457031 134.960938 C 62.457031 129.457031 66.925781 124.984375 72.417969 124.984375 C 77.90625 124.984375 82.375 129.457031 82.375 134.960938 C 82.375 140.460938 77.90625 144.933594 72.417969 144.933594 Z M 82.375 67.628906 L 82.375 123.820312 C 79.730469 121.445312 76.238281 119.996094 72.417969 119.996094 C 64.179688 119.996094 57.476562 126.707031 57.476562 134.960938 C 57.476562 143.210938 64.179688 149.921875 72.417969 149.921875 C 80.65625 149.921875 87.355469 143.210938 87.355469 134.960938 L 87.355469 84.277344 L 132.175781 66.324219 L 132.175781 108.855469 C 129.53125 106.480469 126.039062 105.035156 122.214844 105.035156 C 113.976562 105.035156 107.277344 111.746094 107.277344 119.996094 C 107.277344 128.246094 113.976562 134.960938 122.214844 134.960938 C 130.453125 134.960938 137.15625 128.246094 137.15625 119.996094 C 137.15625 119.148438 137.15625 47.679688 137.15625 47.679688 C 137.15625 46.851562 136.746094 46.078125 136.0625 45.613281 C 135.378906 45.148438 134.507812 45.054688 133.742188 45.363281 L 83.941406 65.3125 C 82.996094 65.691406 82.375 66.609375 82.375 67.628906 " fill-opacity="1" fill-rule="nonzero"/></g><g clip-path="url(#d4aec05a75)"><path fill="#7ed957" d="M 27.597656 82.589844 C 22.105469 82.589844 17.636719 78.117188 17.636719 72.617188 C 17.636719 67.113281 22.105469 62.640625 27.597656 62.640625 C 33.089844 62.640625 37.554688 67.113281 37.554688 72.617188 C 37.554688 78.117188 33.089844 82.589844 27.597656 82.589844 Z M 66.328125 30.640625 C 54.867188 22.988281 42.320312 1.742188 42.195312 1.527344 C 41.625 0.558594 40.476562 0.0898438 39.390625 0.382812 C 38.308594 0.679688 37.554688 1.664062 37.554688 2.789062 L 37.554688 61.476562 C 34.910156 59.101562 31.421875 57.652344 27.597656 57.652344 C 19.359375 57.652344 12.65625 64.363281 12.65625 72.617188 C 12.65625 80.867188 19.359375 87.578125 27.597656 87.578125 C 35.835938 87.578125 42.535156 80.867188 42.535156 72.617188 L 42.535156 11.335938 C 47.445312 18.617188 55.570312 29.453125 63.566406 34.789062 C 68.859375 38.328125 71.222656 42.925781 70.585938 48.460938 C 70.097656 52.703125 68.003906 56.035156 67.863281 56.257812 C 67.863281 56.257812 67.859375 56.261719 67.859375 56.261719 C 67.859375 56.265625 67.855469 56.269531 67.855469 56.269531 C 67.589844 56.664062 67.4375 57.140625 67.4375 57.652344 C 67.4375 59.03125 68.550781 60.148438 69.925781 60.148438 C 70.789062 60.148438 71.550781 59.707031 71.996094 59.035156 C 72.113281 58.863281 74.824219 54.742188 75.507812 49.234375 C 76.164062 43.984375 75.101562 36.5 66.328125 30.640625 " fill-opacity="1" fill-rule="nonzero"/></g><path fill="#7ed957" d="M 112.257812 10.273438 C 110.882812 10.273438 109.765625 11.386719 109.765625 12.765625 L 109.765625 17.753906 L 104.785156 17.753906 C 103.410156 17.753906 102.296875 18.871094 102.296875 20.246094 C 102.296875 21.625 103.410156 22.742188 104.785156 22.742188 L 109.765625 22.742188 L 109.765625 27.726562 C 109.765625 29.105469 110.882812 30.222656 112.257812 30.222656 C 113.632812 30.222656 114.746094 29.105469 114.746094 27.726562 L 114.746094 22.742188 L 119.726562 22.742188 C 121.101562 22.742188 122.214844 21.625 122.214844 20.246094 C 122.214844 18.871094 121.101562 17.753906 119.726562 17.753906 L 114.746094 17.753906 L 114.746094 12.765625 C 114.746094 11.386719 113.632812 10.273438 112.257812 10.273438 " fill-opacity="1" fill-rule="nonzero"/><path fill="#7ed957" d="M 30.085938 139.945312 C 31.460938 139.945312 32.578125 138.828125 32.578125 137.453125 L 32.578125 132.464844 L 37.554688 132.464844 C 38.929688 132.464844 40.046875 131.347656 40.046875 129.972656 C 40.046875 128.59375 38.929688 127.476562 37.554688 127.476562 L 32.578125 127.476562 L 32.578125 122.492188 C 32.578125 121.113281 31.460938 119.996094 30.085938 119.996094 C 28.710938 119.996094 27.597656 121.113281 27.597656 122.492188 L 27.597656 127.476562 L 22.617188 127.476562 C 21.242188 127.476562 20.125 128.59375 20.125 129.972656 C 20.125 131.347656 21.242188 132.464844 22.617188 132.464844 L 27.597656 132.464844 L 27.597656 137.453125 C 27.597656 138.828125 28.710938 139.945312 30.085938 139.945312 " fill-opacity="1" fill-rule="nonzero"/></svg>